<svg width="42" height="43" viewBox="0 0 42 43" fill="none" xmlns="http://www.w3.org/2000/svg">
<path d="M40.867 23.203C40.8797 33.8475 31.9135 42.4871 20.8405 42.5C9.76747 42.5129 0.780742 33.8943 0.768062 23.2497C0.755383 12.6052 9.72155 3.96565 20.7946 3.95273C31.8676 3.93982 40.8543 12.5584 40.867 23.203Z" fill="white"/>
<path fill-rule="evenodd" clip-rule="evenodd" d="M20.9923 0.500015C9.37021 0.513572 -0.0138816 9.95462 1.54152e-05 21.6209C0.011124 30.9464 6.04043 38.8333 14.395 41.6174C15.4393 41.8262 15.821 41.1618 15.8203 40.6033C15.8197 40.1142 15.7833 38.4378 15.7813 36.6911C9.93622 37.9556 8.71424 34.1845 8.71424 34.1845C7.77175 31.7407 6.37885 31.1139 6.37885 31.1139C4.46374 29.8238 6.51669 29.8214 6.51669 29.8214C8.63951 29.9586 9.75573 31.9831 9.75573 31.9831C11.6383 35.194 14.6646 34.2826 15.8818 33.7222C16.054 32.3598 16.61 31.4161 17.2009 30.8917C12.5373 30.408 7.62905 28.5976 7.61939 20.4941C7.61665 18.1889 8.44901 16.3019 9.76972 14.8336C9.56044 14.31 8.82694 12.145 9.97214 9.24472C9.97214 9.24472 11.7461 8.6837 15.7507 11.4035C17.4633 10.9397 19.2297 10.7027 21.0044 10.6987C22.779 10.6966 24.5884 10.9392 26.2594 11.3912C30.258 8.66211 32.0332 9.21898 32.0332 9.21898C33.1853 12.1165 32.4566 14.2833 32.2485 14.8074C33.6076 16.2726 34.41 18.1577 34.4128 20.4629C34.4224 28.5663 29.5184 30.3531 24.8212 30.8828C25.5878 31.5454 26.2501 32.8018 26.2524 34.7929C26.2558 37.6219 26.2241 39.8925 26.2249 40.5907C26.2256 41.1497 26.6093 41.8132 27.6527 41.6024C36.0006 38.7979 42.0111 30.8974 42 21.5719C42.0205 9.90559 32.5795 0.486498 20.9923 0.500015Z" fill="#24292F"/>
</svg>
