<svg width="361" height="164" viewBox="0 0 361 164" fill="none" xmlns="http://www.w3.org/2000/svg">
<rect x="28" y="31" width="333" height="133" rx="20" fill="#155BB8"/>
<rect x="23" y="24" width="333" height="133" rx="20" fill="#3387F7"/>
<circle cx="40.5" cy="43.5" r="6.5" fill="white"/>
<path d="M46.3871 39.6867C43.6457 43.8013 39.5592 46.878 34.824 48.3927C30.0888 49.9073 24.9979 49.7661 20.4186 47.9932C15.8393 46.2202 12.055 42.9252 9.71058 38.6696C7.36613 34.4139 6.60653 29.461 7.56123 24.6546C8.51593 19.8482 11.1258 15.4859 14.9463 12.3108C18.7667 9.13566 23.5613 7.34429 28.5131 7.24188C33.4649 7.13947 38.2675 8.73236 42.1026 11.7491C45.9377 14.7659 48.568 19.0199 49.5454 23.7863L45.3354 24.6992C44.5541 20.8891 42.4515 17.4887 39.3859 15.0772C36.3203 12.6657 32.4813 11.3925 28.5231 11.4743C24.5649 11.5562 20.7324 12.9881 17.6785 15.5261C14.6246 18.0642 12.5384 21.5512 11.7752 25.3932C11.0121 29.2352 11.6193 33.1943 13.4933 36.5961C15.3674 39.9978 18.3923 42.6317 22.0528 44.0489C25.7132 45.4661 29.7827 45.579 33.5678 44.3683C37.3528 43.1575 40.6194 40.6981 42.8107 37.4091L46.3871 39.6867Z" fill="#D9D9D9"/>
</svg>
